<?xml version="1.0" encoding="UTF-8"?>
<svg xmlns="http://www.w3.org/2000/svg" xmlns:xlink="http://www.w3.org/1999/xlink" viewBox="0 0 741.5 752.83">
  <g>
    <g>
      <path fill="#000000" d="M0,288.37C0,255.55,67.91,11.38,343.66,.4c284.9-11.34,364.09,220.09,364.09,220.09,0,0-180.6,.62-215.32,.62-8.43-8.93-35.38-54.07-136.51-54.07-117.45,0-179.77,121.33-179.77,121.33H0Z"/>
      <path fill="#000000" d="M366.69,284.83s317.06-.51,366.85,0c19.91,58.21,33.8,468-366.85,468C50.3,752.83,0,469.43,0,469.43H178.21s65.87,120.2,188.47,118.72,186.34-101.79,186.34-126.3c-22.13-.26-186.34-.34-186.34-.34v-176.68Z"/>
    </g>
  </g>
</svg>